<mxfile host="app.diagrams.net" modified="2023-04-24T20:20:20.684Z" agent="Mozilla/5.0 (Macintosh; Intel Mac OS X 10_15_7) AppleWebKit/537.36 (KHTML, like Gecko) Chrome/112.0.0.0 Safari/537.36" etag="WdpwaP3Mj_aRXB1KvA6q" version="21.2.1" type="device" pages="2">
  <diagram name="Phone size" id="aU9IfXCVljVVuZvrWiCI">
    <mxGraphModel dx="2035" dy="804" grid="1" gridSize="10" guides="1" tooltips="1" connect="1" arrows="1" fold="1" page="1" pageScale="1" pageWidth="1100" pageHeight="850" math="0" shadow="0">
      <root>
        <mxCell id="0" />
        <mxCell id="1" parent="0" />
        <mxCell id="eFickKceO4zDAw2f4LYH-37" value="" style="strokeWidth=1;shadow=0;dashed=0;align=center;html=1;shape=mxgraph.mockup.text.callout;linkText=;textSize=17;textColor=#666666;callDir=NW;callStyle=line;fontSize=17;fontColor=#666666;align=left;verticalAlign=top;strokeColor=#666666;" vertex="1" parent="1">
          <mxGeometry x="220" y="220" width="200" height="210" as="geometry" />
        </mxCell>
        <mxCell id="eFickKceO4zDAw2f4LYH-1" value="" style="html=1;verticalLabelPosition=bottom;labelBackgroundColor=#ffffff;verticalAlign=top;shadow=0;dashed=0;strokeWidth=1;shape=mxgraph.ios7.misc.iphone;strokeColor=#c0c0c0;" vertex="1" parent="1">
          <mxGeometry x="320" y="400" width="210" height="410" as="geometry" />
        </mxCell>
        <mxCell id="eFickKceO4zDAw2f4LYH-33" value="Today&#39;s (EoD?) price,&lt;br&gt;Daily Change&lt;br&gt;1Month avg, 1Month Delta" style="strokeWidth=1;shadow=0;dashed=0;align=center;html=1;shape=mxgraph.mockup.text.callout;linkText=;textSize=17;textColor=#666666;callDir=NW;callStyle=line;fontSize=17;fontColor=#666666;align=left;verticalAlign=top;strokeColor=#666666;" vertex="1" parent="1">
          <mxGeometry x="100" y="460" width="240" height="132" as="geometry" />
        </mxCell>
        <mxCell id="eFickKceO4zDAw2f4LYH-23" value="Symbol&#39;s performance&lt;br&gt;over the reporting&lt;br&gt;window vs&lt;br&gt;market&amp;nbsp;" style="strokeWidth=1;shadow=0;dashed=0;align=center;html=1;shape=mxgraph.mockup.text.callout;linkText=;textSize=17;textColor=#666666;callDir=SW;callStyle=line;fontSize=17;fontColor=#666666;align=left;verticalAlign=bottom;strokeColor=#666666;" vertex="1" parent="1">
          <mxGeometry x="50" y="710" width="283" height="100" as="geometry" />
        </mxCell>
        <mxCell id="eFickKceO4zDAw2f4LYH-29" value="" style="strokeWidth=1;shadow=0;dashed=0;align=center;html=1;shape=mxgraph.mockup.text.callout;linkText=;textSize=17;textColor=#666666;callDir=NE;callStyle=line;fontSize=17;fontColor=#666666;align=right;verticalAlign=top;strokeColor=#666666;" vertex="1" parent="1">
          <mxGeometry x="510" y="522" width="200" height="20" as="geometry" />
        </mxCell>
        <mxCell id="eFickKceO4zDAw2f4LYH-2" value="" style="html=1;strokeWidth=1;shadow=0;dashed=0;shape=mxgraph.ios7ui.appBar;fillColor=#ffffff;gradientColor=none;sketch=0;hachureGap=4;pointerEvents=0;" vertex="1" parent="1">
          <mxGeometry x="340" y="470" width="167.5" height="15" as="geometry" />
        </mxCell>
        <mxCell id="eFickKceO4zDAw2f4LYH-3" value="CARRIER" style="shape=rect;sketch=0;align=left;fontSize=8;spacingLeft=24;fontSize=4;fontColor=#aaaaaa;strokeColor=none;fillColor=none;spacingTop=4;hachureGap=4;pointerEvents=0;html=1;" vertex="1" parent="eFickKceO4zDAw2f4LYH-2">
          <mxGeometry y="0.5" width="50" height="13" relative="1" as="geometry">
            <mxPoint y="-6.5" as="offset" />
          </mxGeometry>
        </mxCell>
        <mxCell id="eFickKceO4zDAw2f4LYH-4" value="11:55PM" style="shape=rect;sketch=0;fontSize=8;fontColor=#aaaaaa;strokeColor=none;fillColor=none;spacingTop=4;hachureGap=4;pointerEvents=0;html=1;" vertex="1" parent="eFickKceO4zDAw2f4LYH-2">
          <mxGeometry x="0.5" y="0.5" width="50" height="13" relative="1" as="geometry">
            <mxPoint x="-30" y="-6.5" as="offset" />
          </mxGeometry>
        </mxCell>
        <mxCell id="eFickKceO4zDAw2f4LYH-5" value="98%" style="shape=rect;align=right;fontSize=8;spacingRight=19;fontSize=6;fontColor=#aaaaaa;strokeColor=none;fillColor=none;spacingTop=4;sketch=0;hachureGap=4;pointerEvents=0;html=1;" vertex="1" parent="eFickKceO4zDAw2f4LYH-2">
          <mxGeometry x="1" y="0.5" width="45" height="13" relative="1" as="geometry">
            <mxPoint x="-45" y="-6.5" as="offset" />
          </mxGeometry>
        </mxCell>
        <mxCell id="eFickKceO4zDAw2f4LYH-6" value="" style="verticalLabelPosition=bottom;shadow=0;dashed=0;align=center;html=1;verticalAlign=top;strokeWidth=1;shape=mxgraph.mockup.graphics.lineChart;strokeColor=none;strokeColor2=#666666;strokeColor3=#008cff;strokeColor4=#dddddd;" vertex="1" parent="1">
          <mxGeometry x="333" y="620" width="167" height="130" as="geometry" />
        </mxCell>
        <mxCell id="eFickKceO4zDAw2f4LYH-8" value="" style="shape=table;html=1;whiteSpace=wrap;startSize=0;container=1;collapsible=0;childLayout=tableLayout;strokeWidth=2;perimeterSpacing=1;" vertex="1" parent="1">
          <mxGeometry x="333" y="567" width="177" height="46" as="geometry" />
        </mxCell>
        <mxCell id="eFickKceO4zDAw2f4LYH-12" value="" style="shape=tableRow;horizontal=0;startSize=0;swimlaneHead=0;swimlaneBody=0;top=0;left=0;bottom=0;right=0;collapsible=0;dropTarget=0;fillColor=none;points=[[0,0.5],[1,0.5]];portConstraint=eastwest;strokeWidth=2;perimeterSpacing=1;" vertex="1" parent="eFickKceO4zDAw2f4LYH-8">
          <mxGeometry width="177" height="22" as="geometry" />
        </mxCell>
        <mxCell id="eFickKceO4zDAw2f4LYH-13" value="165.02 &lt;font style=&quot;font-size: 6px;&quot;&gt;USD&lt;/font&gt;" style="shape=partialRectangle;html=1;whiteSpace=wrap;connectable=0;fillColor=none;top=0;left=0;bottom=0;right=0;overflow=hidden;align=right;" vertex="1" parent="eFickKceO4zDAw2f4LYH-12">
          <mxGeometry width="84" height="22" as="geometry">
            <mxRectangle width="84" height="22" as="alternateBounds" />
          </mxGeometry>
        </mxCell>
        <mxCell id="eFickKceO4zDAw2f4LYH-14" value="&lt;font color=&quot;#008a30&quot;&gt;+1.63 &lt;font style=&quot;font-size: 6px;&quot;&gt;today&lt;/font&gt;&lt;/font&gt;" style="shape=partialRectangle;html=1;whiteSpace=wrap;connectable=0;fillColor=#d5e8d4;top=0;left=0;bottom=0;right=0;overflow=hidden;align=right;strokeColor=default;strokeWidth=2;perimeterSpacing=1;" vertex="1" parent="eFickKceO4zDAw2f4LYH-12">
          <mxGeometry x="84" width="93" height="22" as="geometry">
            <mxRectangle width="93" height="22" as="alternateBounds" />
          </mxGeometry>
        </mxCell>
        <mxCell id="eFickKceO4zDAw2f4LYH-15" value="" style="shape=tableRow;horizontal=0;startSize=0;swimlaneHead=0;swimlaneBody=0;top=0;left=0;bottom=0;right=0;collapsible=0;dropTarget=0;fillColor=none;points=[[0,0.5],[1,0.5]];portConstraint=eastwest;" vertex="1" parent="eFickKceO4zDAw2f4LYH-8">
          <mxGeometry y="22" width="177" height="24" as="geometry" />
        </mxCell>
        <mxCell id="eFickKceO4zDAw2f4LYH-16" value="&lt;font color=&quot;#ff3333&quot;&gt;112.76&lt;/font&gt;" style="shape=partialRectangle;html=1;whiteSpace=wrap;connectable=0;fillColor=none;top=0;left=0;bottom=0;right=0;overflow=hidden;align=right;" vertex="1" parent="eFickKceO4zDAw2f4LYH-15">
          <mxGeometry width="84" height="24" as="geometry">
            <mxRectangle width="84" height="24" as="alternateBounds" />
          </mxGeometry>
        </mxCell>
        <mxCell id="eFickKceO4zDAw2f4LYH-17" value="&lt;font style=&quot;background-color: rgb(255, 204, 204);&quot; color=&quot;#ff3333&quot;&gt;-0.77 &lt;font style=&quot;font-size: 6px;&quot;&gt;month&lt;/font&gt;&lt;/font&gt;" style="shape=partialRectangle;html=1;whiteSpace=wrap;connectable=0;fillColor=#f8cecc;top=0;left=0;bottom=0;right=0;overflow=hidden;align=right;strokeColor=default;strokeWidth=2;perimeterSpacing=3;" vertex="1" parent="eFickKceO4zDAw2f4LYH-15">
          <mxGeometry x="84" width="93" height="24" as="geometry">
            <mxRectangle width="93" height="24" as="alternateBounds" />
          </mxGeometry>
        </mxCell>
        <mxCell id="eFickKceO4zDAw2f4LYH-18" value="AAPL" style="strokeWidth=1;shadow=0;dashed=0;align=center;html=1;shape=mxgraph.mockup.buttons.button;strokeColor=#666666;fontColor=#ffffff;mainText=;buttonStyle=round;fontSize=17;fontStyle=1;fillColor=#008cff;whiteSpace=wrap;" vertex="1" parent="1">
          <mxGeometry x="333" y="530" width="177" height="30" as="geometry" />
        </mxCell>
        <mxCell id="eFickKceO4zDAw2f4LYH-20" value="&lt;font style=&quot;font-size: 14px;&quot;&gt;Tckr Tracker&lt;/font&gt;" style="text;strokeColor=none;align=center;fillColor=none;html=1;verticalAlign=middle;whiteSpace=wrap;rounded=0;" vertex="1" parent="1">
          <mxGeometry x="338" y="485" width="87" height="30" as="geometry" />
        </mxCell>
        <mxCell id="eFickKceO4zDAw2f4LYH-21" value="April 28, 2023" style="text;strokeColor=none;align=center;fillColor=none;html=1;verticalAlign=middle;whiteSpace=wrap;rounded=0;" vertex="1" parent="1">
          <mxGeometry x="333" y="503" width="97" height="27" as="geometry" />
        </mxCell>
        <mxCell id="eFickKceO4zDAw2f4LYH-26" value="" style="html=1;verticalLabelPosition=bottom;labelBackgroundColor=#ffffff;verticalAlign=top;shadow=0;dashed=0;strokeWidth=2;shape=mxgraph.ios7.misc.down;strokeColor=#FFFFFF;" vertex="1" parent="1">
          <mxGeometry x="488" y="542" width="12" height="6" as="geometry" />
        </mxCell>
        <mxCell id="eFickKceO4zDAw2f4LYH-24" value="Initially, links&lt;br&gt;to a list of preset&amp;nbsp;&lt;br&gt;symbols" style="strokeWidth=1;shadow=0;dashed=0;align=center;html=1;shape=mxgraph.mockup.text.stickyNote2;fontColor=#666666;mainText=;fontSize=17;whiteSpace=wrap;fillColor=#ffffcc;strokeColor=#F62E00;" vertex="1" parent="1">
          <mxGeometry x="650" y="460" width="200" height="200" as="geometry" />
        </mxCell>
        <mxCell id="eFickKceO4zDAw2f4LYH-31" value="" style="strokeWidth=1;shadow=0;dashed=0;align=center;html=1;shape=mxgraph.mockup.text.callout;linkText=;textSize=17;textColor=#666666;callDir=NE;callStyle=line;fontSize=17;fontColor=#666666;align=right;verticalAlign=top;strokeColor=#666666;" vertex="1" parent="1">
          <mxGeometry x="510" y="340" width="200" height="160" as="geometry" />
        </mxCell>
        <mxCell id="eFickKceO4zDAw2f4LYH-32" value="Eventually, this&amp;nbsp;&lt;br&gt;could permit customization of multiple tracked ticker symbols, or colors on a composite graph" style="strokeWidth=1;shadow=0;dashed=0;align=center;html=1;shape=mxgraph.mockup.text.stickyNote2;fontColor=#666666;mainText=;fontSize=17;whiteSpace=wrap;fillColor=#ffffcc;strokeColor=#F62E00;" vertex="1" parent="1">
          <mxGeometry x="680" y="200" width="220" height="200" as="geometry" />
        </mxCell>
        <mxCell id="eFickKceO4zDAw2f4LYH-35" value="" style="html=1;verticalLabelPosition=bottom;align=center;labelBackgroundColor=#ffffff;verticalAlign=top;strokeWidth=2;strokeColor=#0080F0;shadow=0;dashed=0;shape=mxgraph.ios7.icons.user;" vertex="1" parent="1">
          <mxGeometry x="480" y="492" width="30" height="30" as="geometry" />
        </mxCell>
        <mxCell id="eFickKceO4zDAw2f4LYH-34" value="Use Local Storage to remember User&#39;s tracked ticker symbol(s), or other options" style="strokeWidth=1;shadow=0;dashed=0;align=center;html=1;shape=mxgraph.mockup.text.stickyNote2;fontColor=#666666;mainText=;fontSize=17;whiteSpace=wrap;fillColor=#ffffcc;strokeColor=#F62E00;" vertex="1" parent="1">
          <mxGeometry x="50" y="110" width="200" height="200" as="geometry" />
        </mxCell>
      </root>
    </mxGraphModel>
  </diagram>
  <diagram id="f_tfaoBnuQGSSMXK9QYN" name="Web Page Size">
    <mxGraphModel dx="3506" dy="766" grid="1" gridSize="10" guides="1" tooltips="1" connect="1" arrows="1" fold="1" page="1" pageScale="1" pageWidth="1100" pageHeight="850" math="0" shadow="0">
      <root>
        <mxCell id="0" />
        <mxCell id="1" parent="0" />
        <mxCell id="Rx7mZaeZPaBJiVccPEK--1" value="" style="strokeWidth=1;shadow=0;dashed=0;align=center;html=1;shape=mxgraph.mockup.containers.browserWindow;rSize=0;strokeColor=#666666;strokeColor2=#008cff;strokeColor3=#c4c4c4;mainText=,;recursiveResize=0;fillColor=#808080;" vertex="1" parent="1">
          <mxGeometry x="10" width="812" height="780" as="geometry" />
        </mxCell>
        <mxCell id="Rx7mZaeZPaBJiVccPEK--2" value="&lt;font color=&quot;#ffffff&quot;&gt;Tckr Tracker&lt;/font&gt;" style="strokeWidth=1;shadow=0;dashed=0;align=center;html=1;shape=mxgraph.mockup.containers.anchor;fontSize=17;fontColor=#666666;align=left;whiteSpace=wrap;strokeColor=#FFFFFF;" vertex="1" parent="Rx7mZaeZPaBJiVccPEK--1">
          <mxGeometry x="60" y="12" width="110" height="26" as="geometry" />
        </mxCell>
        <mxCell id="Rx7mZaeZPaBJiVccPEK--3" value="&lt;font color=&quot;#ffffff&quot;&gt;https://www.foo.bar.biz&lt;/font&gt;" style="strokeWidth=1;shadow=0;dashed=0;align=center;html=1;shape=mxgraph.mockup.containers.anchor;rSize=0;fontSize=17;fontColor=#666666;align=left;" vertex="1" parent="Rx7mZaeZPaBJiVccPEK--1">
          <mxGeometry x="130" y="60" width="250" height="26" as="geometry" />
        </mxCell>
        <mxCell id="XvL3G3ShM5fAOdMurJYd-1" value="Tckr Tracker" style="html=1;shadow=0;dashed=0;fillColor=#424242;strokeColor=none;fontSize=16;fontColor=#ffffff;align=left;spacing=15;" vertex="1" parent="Rx7mZaeZPaBJiVccPEK--1">
          <mxGeometry y="110" width="810" height="60" as="geometry" />
        </mxCell>
        <mxCell id="XvL3G3ShM5fAOdMurJYd-2" value="Home" style="fillColor=none;strokeColor=none;fontSize=14;fontColor=#ffffff;align=center;" vertex="1" parent="XvL3G3ShM5fAOdMurJYd-1">
          <mxGeometry width="70" height="40" relative="1" as="geometry">
            <mxPoint x="124" y="10" as="offset" />
          </mxGeometry>
        </mxCell>
        <mxCell id="XvL3G3ShM5fAOdMurJYd-6" value="Login" style="html=1;shadow=0;dashed=0;shape=mxgraph.bootstrap.rrect;rSize=5;fontSize=14;fontColor=#ffffff;strokeColor=#ffffff;fillColor=none;" vertex="1" parent="XvL3G3ShM5fAOdMurJYd-1">
          <mxGeometry x="1" width="70" height="40" relative="1" as="geometry">
            <mxPoint x="-80" y="10" as="offset" />
          </mxGeometry>
        </mxCell>
        <mxCell id="XvL3G3ShM5fAOdMurJYd-7" value="&lt;font color=&quot;#e6e6e6&quot;&gt;Search&lt;/font&gt;" style="html=1;shadow=0;dashed=0;shape=mxgraph.bootstrap.rrect;rSize=5;fontSize=14;fontColor=#6C767D;strokeColor=#CED4DA;fillColor=#9A9DA0;align=left;spacing=10;" vertex="1" parent="XvL3G3ShM5fAOdMurJYd-1">
          <mxGeometry x="1" width="180" height="40" relative="1" as="geometry">
            <mxPoint x="-384" y="10" as="offset" />
          </mxGeometry>
        </mxCell>
        <mxCell id="XvL3G3ShM5fAOdMurJYd-8" value="" style="html=1;verticalLabelPosition=bottom;align=center;labelBackgroundColor=#ffffff;verticalAlign=top;strokeWidth=2;strokeColor=#FFFFFF;shadow=0;dashed=0;shape=mxgraph.ios7.icons.user;fillColor=#000000;" vertex="1" parent="XvL3G3ShM5fAOdMurJYd-1">
          <mxGeometry x="680" y="15" width="30" height="30" as="geometry" />
        </mxCell>
        <mxCell id="XvL3G3ShM5fAOdMurJYd-101" value="Symbols" style="fillColor=none;strokeColor=none;fontSize=14;fontColor=#9A9DA0;align=center;" vertex="1" parent="XvL3G3ShM5fAOdMurJYd-1">
          <mxGeometry x="205" y="10" width="100" height="40" as="geometry" />
        </mxCell>
        <mxCell id="XvL3G3ShM5fAOdMurJYd-104" value="Features" style="fillColor=none;strokeColor=none;fontSize=14;fontColor=#9A9DA0;align=center;" vertex="1" parent="XvL3G3ShM5fAOdMurJYd-1">
          <mxGeometry x="310" y="10" width="100" height="40" as="geometry" />
        </mxCell>
        <mxCell id="XvL3G3ShM5fAOdMurJYd-102" value="" style="shape=triangle;direction=south;fillColor=#9A9DA0;strokeColor=none;perimeter=none;fontColor=#9A9DA0;" vertex="1" parent="XvL3G3ShM5fAOdMurJYd-1">
          <mxGeometry x="290" y="28.5" width="10" height="5" as="geometry" />
        </mxCell>
        <mxCell id="XvL3G3ShM5fAOdMurJYd-105" value="" style="shape=triangle;direction=south;fillColor=#9A9DA0;strokeColor=none;perimeter=none;fontColor=#9A9DA0;" vertex="1" parent="XvL3G3ShM5fAOdMurJYd-1">
          <mxGeometry x="394" y="27.5" width="10" height="5" as="geometry" />
        </mxCell>
        <mxCell id="XvL3G3ShM5fAOdMurJYd-27" value="&lt;font color=&quot;#ffffff&quot;&gt;...&lt;/font&gt;&lt;font color=&quot;#00ff00&quot;&gt;&amp;nbsp; &amp;nbsp;AAPL&amp;nbsp; ^1.23&amp;nbsp; &lt;/font&gt;&lt;font color=&quot;#ffffff&quot;&gt;...&lt;/font&gt;&lt;font color=&quot;#00ff00&quot;&gt;&amp;nbsp; &lt;/font&gt;&lt;font color=&quot;#ff3333&quot;&gt;AMZN v2.34&lt;/font&gt;&lt;font color=&quot;#ffffff&quot;&gt;&amp;nbsp; ...&amp;nbsp;&amp;nbsp;&lt;/font&gt;&lt;font style=&quot;border-color: var(--border-color);&quot; color=&quot;#00ff00&quot;&gt;GOOGL&amp;nbsp; ^0.12&amp;nbsp;&amp;nbsp;&lt;/font&gt;&lt;font style=&quot;border-color: var(--border-color);&quot; color=&quot;#ffffff&quot;&gt;...&lt;/font&gt;&lt;font style=&quot;border-color: var(--border-color);&quot; color=&quot;#00ff00&quot;&gt;&amp;nbsp; &amp;nbsp;MSFT&amp;nbsp; ^0.04&amp;nbsp;&amp;nbsp;&lt;/font&gt;&lt;font style=&quot;border-color: var(--border-color);&quot; color=&quot;#ffffff&quot;&gt;&amp;nbsp;...&lt;/font&gt;&lt;font style=&quot;border-color: var(--border-color);&quot; color=&quot;#00ff00&quot;&gt;&amp;nbsp;&amp;nbsp;&lt;/font&gt;&lt;font style=&quot;border-color: var(--border-color);&quot; color=&quot;#ff3333&quot;&gt;TSLA v0.65&lt;/font&gt;&lt;font style=&quot;border-color: var(--border-color);&quot; color=&quot;#ffffff&quot;&gt;&amp;nbsp; &amp;nbsp;...&lt;/font&gt;" style="html=1;shadow=0;fillColor=#1A1A1A;strokeColor=default;fontSize=16;fontColor=#7C7C7D;align=left;spacing=15;strokeWidth=2;" vertex="1" parent="Rx7mZaeZPaBJiVccPEK--1">
          <mxGeometry x="2" y="170" width="810" height="20" as="geometry" />
        </mxCell>
        <mxCell id="XvL3G3ShM5fAOdMurJYd-29" value="&lt;font color=&quot;#ffffff&quot;&gt;&amp;nbsp; &amp;nbsp; &amp;nbsp;&amp;nbsp;&lt;/font&gt;&lt;font color=&quot;#00ff00&quot;&gt; &amp;nbsp;&lt;/font&gt;&lt;font color=&quot;#ffffff&quot;&gt;...&lt;/font&gt;&lt;font color=&quot;#00ff00&quot;&gt;&amp;nbsp; &lt;/font&gt;&lt;font color=&quot;#ff3333&quot;&gt;AMZN 106.65&lt;/font&gt;&lt;font color=&quot;#ffffff&quot;&gt;&amp;nbsp; ...&amp;nbsp;&amp;nbsp;&lt;/font&gt;&lt;font style=&quot;border-color: var(--border-color);&quot; color=&quot;#00ff00&quot;&gt;GOOGL&amp;nbsp; 102.34&amp;nbsp;&amp;nbsp;&lt;/font&gt;&lt;font style=&quot;border-color: var(--border-color);&quot; color=&quot;#ffffff&quot;&gt;...&lt;/font&gt;&lt;font style=&quot;border-color: var(--border-color);&quot; color=&quot;#00ff00&quot;&gt;&amp;nbsp; &amp;nbsp;MSFT&amp;nbsp; 97.89&amp;nbsp;&amp;nbsp;&lt;/font&gt;&lt;font style=&quot;border-color: var(--border-color);&quot; color=&quot;#ffffff&quot;&gt;&amp;nbsp;...&lt;/font&gt;&lt;font style=&quot;border-color: var(--border-color);&quot; color=&quot;#00ff00&quot;&gt;&amp;nbsp;&amp;nbsp;&lt;/font&gt;&lt;font style=&quot;border-color: var(--border-color);&quot; color=&quot;#ff3333&quot;&gt;TSLA 165.08&lt;/font&gt;&lt;font style=&quot;border-color: var(--border-color);&quot; color=&quot;#ffffff&quot;&gt;&amp;nbsp; &amp;nbsp;...&lt;/font&gt;" style="html=1;shadow=0;fillColor=#1A1A1A;strokeColor=default;fontSize=16;fontColor=#7C7C7D;align=left;spacing=15;strokeWidth=2;" vertex="1" parent="Rx7mZaeZPaBJiVccPEK--1">
          <mxGeometry x="2" y="190" width="810" height="20" as="geometry" />
        </mxCell>
        <mxCell id="XvL3G3ShM5fAOdMurJYd-30" value="" style="verticalLabelPosition=bottom;shadow=0;dashed=0;align=center;html=1;verticalAlign=top;strokeWidth=3;shape=mxgraph.mockup.graphics.lineChart;strokeColor=default;strokeColor2=#666666;strokeColor3=#008cff;strokeColor4=#dddddd;fillColor=none;" vertex="1" parent="Rx7mZaeZPaBJiVccPEK--1">
          <mxGeometry x="40" y="225" width="567" height="335" as="geometry" />
        </mxCell>
        <mxCell id="XvL3G3ShM5fAOdMurJYd-46" value="1" style="strokeWidth=1;shadow=0;dashed=0;align=center;html=1;shape=mxgraph.mockup.misc.ruler2;dx=100;rulerOrient=down;unitSize=10;fontColor=#ffffff;spacingLeft=96;align=left;verticalAlign=middle;spacingBottom=10;spacingTop=0;spacingRight=0;rotation=-90;spacing=0;strokeColor=#cccccc;fillColor=none;" vertex="1" parent="Rx7mZaeZPaBJiVccPEK--1">
          <mxGeometry x="-146" y="377" width="338" height="30" as="geometry" />
        </mxCell>
        <mxCell id="XvL3G3ShM5fAOdMurJYd-50" value="1" style="strokeWidth=1;shadow=0;dashed=0;align=center;html=1;shape=mxgraph.mockup.misc.ruler2;dx=100;rulerOrient=up;unitSize=10;fontColor=#ffffff;spacingLeft=96;align=left;verticalAlign=middle;spacingBottom=0;spacingTop=10;spacingRight=0;spacing=0;strokeColor=#cccccc;fillColor=none;" vertex="1" parent="Rx7mZaeZPaBJiVccPEK--1">
          <mxGeometry x="42.5" y="563" width="557.5" height="17" as="geometry" />
        </mxCell>
        <mxCell id="XvL3G3ShM5fAOdMurJYd-54" value="&lt;font color=&quot;#99ccff&quot; style=&quot;border-color: var(--border-color); font-family: Helvetica; font-style: normal; font-variant-ligatures: normal; font-variant-caps: normal; font-weight: 400; letter-spacing: normal; orphans: 2; text-align: left; text-indent: 0px; text-transform: none; widows: 2; word-spacing: 0px; -webkit-text-stroke-width: 0px; text-decoration-thickness: initial; text-decoration-style: initial; text-decoration-color: initial; font-size: 20px;&quot;&gt;GOOGL&lt;/font&gt;&lt;font style=&quot;border-color: var(--border-color); font-family: Helvetica; font-style: normal; font-variant-ligatures: normal; font-variant-caps: normal; font-weight: 400; letter-spacing: normal; orphans: 2; text-align: left; text-indent: 0px; text-transform: none; widows: 2; word-spacing: 0px; -webkit-text-stroke-width: 0px; text-decoration-thickness: initial; text-decoration-style: initial; text-decoration-color: initial; font-size: 12px;&quot;&gt;&lt;font color=&quot;#008cff&quot;&gt;&lt;br&gt;&lt;/font&gt;&lt;font color=&quot;#ffffff&quot;&gt;NASDAQ&lt;/font&gt;&lt;br&gt;&lt;/font&gt;" style="text;whiteSpace=wrap;html=1;" vertex="1" parent="Rx7mZaeZPaBJiVccPEK--1">
          <mxGeometry x="50.25" y="230" width="124.75" height="55" as="geometry" />
        </mxCell>
        <mxCell id="XvL3G3ShM5fAOdMurJYd-55" value="&lt;div style=&quot;text-align: right;&quot;&gt;&lt;font style=&quot;background-color: initial; color: rgb(255, 255, 255); border-color: var(--border-color); font-size: 20px;&quot;&gt;105.41&lt;/font&gt;&lt;font style=&quot;background-color: initial; color: rgb(255, 255, 255); border-color: var(--border-color); font-size: 16px;&quot;&gt;&amp;nbsp; &lt;/font&gt;&lt;font style=&quot;background-color: initial; border-color: var(--border-color);&quot;&gt;&lt;font color=&quot;#ffffff&quot;&gt;USD&lt;/font&gt;&lt;/font&gt;&lt;/div&gt;&lt;font style=&quot;border-color: var(--border-color); font-family: Helvetica; font-style: normal; font-variant-ligatures: normal; font-variant-caps: normal; font-weight: 400; letter-spacing: normal; orphans: 2; text-indent: 0px; text-transform: none; widows: 2; word-spacing: 0px; -webkit-text-stroke-width: 0px; text-decoration-thickness: initial; text-decoration-style: initial; text-decoration-color: initial; font-size: 12px;&quot;&gt;&lt;div style=&quot;text-align: right;&quot;&gt;&lt;span style=&quot;color: rgb(51, 255, 51); background-color: initial;&quot;&gt;+ 0.12 ( 0.11% ) ^ today&lt;/span&gt;&lt;/div&gt;&lt;/font&gt;" style="text;whiteSpace=wrap;html=1;" vertex="1" parent="Rx7mZaeZPaBJiVccPEK--1">
          <mxGeometry x="458" y="230" width="147.5" height="55" as="geometry" />
        </mxCell>
        <mxCell id="XvL3G3ShM5fAOdMurJYd-57" value="&lt;div style=&quot;&quot;&gt;&lt;font style=&quot;background-color: initial; color: rgb(255, 255, 255); border-color: var(--border-color); font-size: 20px;&quot;&gt;12,072.46&lt;/font&gt;&lt;font style=&quot;background-color: initial; color: rgb(255, 255, 255); border-color: var(--border-color); font-size: 16px;&quot;&gt;&amp;nbsp; &lt;/font&gt;&lt;font style=&quot;background-color: initial; border-color: var(--border-color);&quot;&gt;&lt;font color=&quot;#ffffff&quot;&gt;USD&lt;/font&gt;&lt;/font&gt;&lt;/div&gt;&lt;font style=&quot;border-color: var(--border-color); font-family: Helvetica; font-style: normal; font-variant-ligatures: normal; font-variant-caps: normal; font-weight: 400; letter-spacing: normal; orphans: 2; text-indent: 0px; text-transform: none; widows: 2; word-spacing: 0px; -webkit-text-stroke-width: 0px; text-decoration-thickness: initial; text-decoration-style: initial; text-decoration-color: initial; font-size: 12px;&quot;&gt;&lt;div style=&quot;&quot;&gt;&lt;span style=&quot;color: rgb(51, 255, 51); background-color: initial;&quot;&gt;+ 12.90 ( 0.11% ) ^ today&lt;/span&gt;&lt;/div&gt;&lt;/font&gt;" style="text;whiteSpace=wrap;html=1;align=right;" vertex="1" parent="Rx7mZaeZPaBJiVccPEK--1">
          <mxGeometry x="410" y="500" width="175.5" height="55" as="geometry" />
        </mxCell>
        <mxCell id="XvL3G3ShM5fAOdMurJYd-58" value="&lt;font style=&quot;border-color: var(--border-color); font-family: Helvetica; font-style: normal; font-variant-ligatures: normal; font-variant-caps: normal; font-weight: 400; letter-spacing: normal; orphans: 2; text-align: left; text-indent: 0px; text-transform: none; widows: 2; word-spacing: 0px; -webkit-text-stroke-width: 0px; text-decoration-thickness: initial; text-decoration-style: initial; text-decoration-color: initial; font-size: 12px;&quot;&gt;&lt;font color=&quot;#ffffff&quot;&gt;Nasdaq Composite&lt;/font&gt;&lt;br&gt;&lt;/font&gt;" style="text;whiteSpace=wrap;html=1;spacingTop=0;verticalAlign=bottom;spacingBottom=4;" vertex="1" parent="Rx7mZaeZPaBJiVccPEK--1">
          <mxGeometry x="330" y="500" width="110" height="50" as="geometry" />
        </mxCell>
        <mxCell id="XvL3G3ShM5fAOdMurJYd-59" value="" style="verticalLabelPosition=bottom;verticalAlign=top;html=1;shape=mxgraph.basic.rect;fillColor2=none;strokeWidth=1;size=20;indent=5;textOpacity=0;opacity=30;strokeColor=default;" vertex="1" parent="Rx7mZaeZPaBJiVccPEK--1">
          <mxGeometry x="314" y="497" width="290" height="60" as="geometry" />
        </mxCell>
        <mxCell id="XvL3G3ShM5fAOdMurJYd-90" value="" style="group" vertex="1" connectable="0" parent="Rx7mZaeZPaBJiVccPEK--1">
          <mxGeometry x="619.25" y="601" width="177" height="120" as="geometry" />
        </mxCell>
        <mxCell id="XvL3G3ShM5fAOdMurJYd-86" value="" style="verticalLabelPosition=bottom;shadow=0;dashed=0;align=center;html=1;verticalAlign=top;strokeWidth=3;shape=mxgraph.mockup.graphics.lineChart;strokeColor=default;strokeColor2=#666666;strokeColor3=#00ce00;strokeColor4=#ddd149;fillColor=none;" vertex="1" parent="XvL3G3ShM5fAOdMurJYd-90">
          <mxGeometry x="3" width="174" height="100" as="geometry" />
        </mxCell>
        <mxCell id="XvL3G3ShM5fAOdMurJYd-87" value="1" style="strokeWidth=1;shadow=0;dashed=0;align=center;html=1;shape=mxgraph.mockup.misc.ruler2;dx=100;rulerOrient=down;unitSize=10;fontColor=#ffffff;spacingLeft=96;align=left;verticalAlign=middle;spacingBottom=10;spacingTop=0;spacingRight=0;rotation=-90;spacing=0;strokeColor=#cccccc;fillColor=none;" vertex="1" parent="XvL3G3ShM5fAOdMurJYd-90">
          <mxGeometry x="-40" y="40" width="100" height="20" as="geometry" />
        </mxCell>
        <mxCell id="XvL3G3ShM5fAOdMurJYd-88" value="1" style="strokeWidth=1;shadow=0;dashed=0;align=center;html=1;shape=mxgraph.mockup.misc.ruler2;dx=100;rulerOrient=up;unitSize=10;fontColor=#ffffff;spacingLeft=96;align=left;verticalAlign=middle;spacingBottom=0;spacingTop=10;spacingRight=0;spacing=0;strokeColor=#cccccc;fillColor=none;" vertex="1" parent="XvL3G3ShM5fAOdMurJYd-90">
          <mxGeometry x="19.5" y="103" width="157.5" height="17" as="geometry" />
        </mxCell>
        <mxCell id="XvL3G3ShM5fAOdMurJYd-91" value="" style="group" vertex="1" connectable="0" parent="Rx7mZaeZPaBJiVccPEK--1">
          <mxGeometry x="620" y="460" width="177" height="120" as="geometry" />
        </mxCell>
        <mxCell id="XvL3G3ShM5fAOdMurJYd-33" value="" style="verticalLabelPosition=bottom;shadow=0;dashed=0;align=center;html=1;verticalAlign=top;strokeWidth=3;shape=mxgraph.mockup.graphics.lineChart;strokeColor=default;strokeColor2=#666666;strokeColor3=#ff0000;strokeColor4=#dddddd;fillColor=none;" vertex="1" parent="XvL3G3ShM5fAOdMurJYd-91">
          <mxGeometry x="3" width="174" height="100" as="geometry" />
        </mxCell>
        <mxCell id="XvL3G3ShM5fAOdMurJYd-49" value="1" style="strokeWidth=1;shadow=0;dashed=0;align=center;html=1;shape=mxgraph.mockup.misc.ruler2;dx=100;rulerOrient=down;unitSize=10;fontColor=#ffffff;spacingLeft=96;align=left;verticalAlign=middle;spacingBottom=10;spacingTop=0;spacingRight=0;rotation=-90;spacing=0;strokeColor=#cccccc;fillColor=none;" vertex="1" parent="XvL3G3ShM5fAOdMurJYd-91">
          <mxGeometry x="-40" y="40" width="100" height="20" as="geometry" />
        </mxCell>
        <mxCell id="XvL3G3ShM5fAOdMurJYd-51" value="1" style="strokeWidth=1;shadow=0;dashed=0;align=center;html=1;shape=mxgraph.mockup.misc.ruler2;dx=100;rulerOrient=up;unitSize=10;fontColor=#ffffff;spacingLeft=96;align=left;verticalAlign=middle;spacingBottom=0;spacingTop=10;spacingRight=0;spacing=0;strokeColor=#cccccc;fillColor=none;" vertex="1" parent="XvL3G3ShM5fAOdMurJYd-91">
          <mxGeometry x="19.5" y="103" width="157.5" height="17" as="geometry" />
        </mxCell>
        <mxCell id="XvL3G3ShM5fAOdMurJYd-92" value="" style="group" vertex="1" connectable="0" parent="Rx7mZaeZPaBJiVccPEK--1">
          <mxGeometry x="620" y="340" width="177" height="107" as="geometry" />
        </mxCell>
        <mxCell id="XvL3G3ShM5fAOdMurJYd-32" value="" style="verticalLabelPosition=bottom;shadow=0;dashed=0;align=center;html=1;verticalAlign=top;strokeWidth=3;shape=mxgraph.mockup.graphics.lineChart;strokeColor=default;strokeColor2=#666666;strokeColor3=#00ce00;strokeColor4=#ddd149;fillColor=none;" vertex="1" parent="XvL3G3ShM5fAOdMurJYd-92">
          <mxGeometry x="3" y="3" width="174" height="100" as="geometry" />
        </mxCell>
        <mxCell id="XvL3G3ShM5fAOdMurJYd-48" value="1" style="strokeWidth=1;shadow=0;dashed=0;align=center;html=1;shape=mxgraph.mockup.misc.ruler2;dx=100;rulerOrient=down;unitSize=10;fontColor=#ffffff;spacingLeft=96;align=left;verticalAlign=middle;spacingBottom=10;spacingTop=0;spacingRight=0;rotation=-90;spacing=0;strokeColor=#cccccc;fillColor=none;" vertex="1" parent="XvL3G3ShM5fAOdMurJYd-92">
          <mxGeometry x="-40" y="40" width="100" height="20" as="geometry" />
        </mxCell>
        <mxCell id="XvL3G3ShM5fAOdMurJYd-53" value="1" style="strokeWidth=1;shadow=0;dashed=0;align=center;html=1;shape=mxgraph.mockup.misc.ruler2;dx=100;rulerOrient=up;unitSize=10;fontColor=#ffffff;spacingLeft=96;align=left;verticalAlign=middle;spacingBottom=0;spacingTop=10;spacingRight=0;spacing=0;strokeColor=#cccccc;fillColor=none;" vertex="1" parent="XvL3G3ShM5fAOdMurJYd-92">
          <mxGeometry x="19.5" y="90" width="157.5" height="17" as="geometry" />
        </mxCell>
        <mxCell id="XvL3G3ShM5fAOdMurJYd-93" value="" style="group" vertex="1" connectable="0" parent="Rx7mZaeZPaBJiVccPEK--1">
          <mxGeometry x="620" y="225" width="177" height="102" as="geometry" />
        </mxCell>
        <mxCell id="XvL3G3ShM5fAOdMurJYd-31" value="" style="verticalLabelPosition=bottom;shadow=0;dashed=0;align=center;html=1;verticalAlign=top;strokeWidth=3;shape=mxgraph.mockup.graphics.lineChart;strokeColor=default;strokeColor2=#666666;strokeColor3=#FF8cff;strokeColor4=#dddddd;fillColor=none;" vertex="1" parent="XvL3G3ShM5fAOdMurJYd-93">
          <mxGeometry x="3" width="174" height="100" as="geometry" />
        </mxCell>
        <mxCell id="XvL3G3ShM5fAOdMurJYd-47" value="1" style="strokeWidth=1;shadow=0;dashed=0;align=center;html=1;shape=mxgraph.mockup.misc.ruler2;dx=100;rulerOrient=down;unitSize=10;fontColor=#ffffff;spacingLeft=96;align=left;verticalAlign=middle;spacingBottom=10;spacingTop=0;spacingRight=0;rotation=-90;spacing=0;strokeColor=#cccccc;fillColor=none;" vertex="1" parent="XvL3G3ShM5fAOdMurJYd-93">
          <mxGeometry x="-40" y="40" width="100" height="20" as="geometry" />
        </mxCell>
        <mxCell id="XvL3G3ShM5fAOdMurJYd-52" value="1" style="strokeWidth=1;shadow=0;dashed=0;align=center;html=1;shape=mxgraph.mockup.misc.ruler2;dx=100;rulerOrient=up;unitSize=10;fontColor=#ffffff;spacingLeft=96;align=left;verticalAlign=middle;spacingBottom=0;spacingTop=10;spacingRight=0;spacing=0;strokeColor=#cccccc;fillColor=none;" vertex="1" parent="XvL3G3ShM5fAOdMurJYd-93">
          <mxGeometry x="19.5" y="85" width="157.5" height="17" as="geometry" />
        </mxCell>
        <mxCell id="XvL3G3ShM5fAOdMurJYd-107" value="" style="group" vertex="1" connectable="0" parent="Rx7mZaeZPaBJiVccPEK--1">
          <mxGeometry x="42.5" y="600" width="564.5" height="100" as="geometry" />
        </mxCell>
        <mxCell id="XvL3G3ShM5fAOdMurJYd-120" value="" style="shape=table;html=1;whiteSpace=wrap;startSize=0;container=1;collapsible=0;childLayout=tableLayout;strokeWidth=2;fillColor=none;strokeColor=#CCCCCC;" vertex="1" parent="Rx7mZaeZPaBJiVccPEK--1">
          <mxGeometry x="38.5" y="600" width="180" height="100" as="geometry" />
        </mxCell>
        <mxCell id="XvL3G3ShM5fAOdMurJYd-121" value="" style="shape=tableRow;horizontal=0;startSize=0;swimlaneHead=0;swimlaneBody=0;top=0;left=0;bottom=0;right=0;collapsible=0;dropTarget=0;fillColor=none;points=[[0,0.5],[1,0.5]];portConstraint=eastwest;" vertex="1" parent="XvL3G3ShM5fAOdMurJYd-120">
          <mxGeometry width="180" height="34" as="geometry" />
        </mxCell>
        <mxCell id="XvL3G3ShM5fAOdMurJYd-122" value="&lt;span style=&quot;font-weight: normal;&quot;&gt;&lt;font color=&quot;#ffffff&quot;&gt;row 0, cell 1&lt;/font&gt;&lt;/span&gt;" style="shape=partialRectangle;html=1;whiteSpace=wrap;connectable=0;fillColor=none;top=0;left=0;bottom=0;right=0;overflow=hidden;fontStyle=1" vertex="1" parent="XvL3G3ShM5fAOdMurJYd-121">
          <mxGeometry width="90" height="34" as="geometry">
            <mxRectangle width="90" height="34" as="alternateBounds" />
          </mxGeometry>
        </mxCell>
        <mxCell id="XvL3G3ShM5fAOdMurJYd-123" value="&lt;span style=&quot;font-weight: normal;&quot;&gt;&lt;font color=&quot;#ffffff&quot;&gt;row 0, cell 2&lt;/font&gt;&lt;/span&gt;" style="shape=partialRectangle;html=1;whiteSpace=wrap;connectable=0;fillColor=none;top=0;left=0;bottom=0;right=0;overflow=hidden;fontStyle=1" vertex="1" parent="XvL3G3ShM5fAOdMurJYd-121">
          <mxGeometry x="90" width="90" height="34" as="geometry">
            <mxRectangle width="90" height="34" as="alternateBounds" />
          </mxGeometry>
        </mxCell>
        <mxCell id="XvL3G3ShM5fAOdMurJYd-124" value="" style="shape=tableRow;horizontal=0;startSize=0;swimlaneHead=0;swimlaneBody=0;top=0;left=0;bottom=0;right=0;collapsible=0;dropTarget=0;fillColor=none;points=[[0,0.5],[1,0.5]];portConstraint=eastwest;" vertex="1" parent="XvL3G3ShM5fAOdMurJYd-120">
          <mxGeometry y="34" width="180" height="32" as="geometry" />
        </mxCell>
        <mxCell id="XvL3G3ShM5fAOdMurJYd-125" value="&lt;font color=&quot;#ffffff&quot;&gt;row 1, cell 1&lt;/font&gt;" style="shape=partialRectangle;html=1;whiteSpace=wrap;connectable=0;fillColor=none;top=0;left=0;bottom=0;right=0;overflow=hidden;" vertex="1" parent="XvL3G3ShM5fAOdMurJYd-124">
          <mxGeometry width="90" height="32" as="geometry">
            <mxRectangle width="90" height="32" as="alternateBounds" />
          </mxGeometry>
        </mxCell>
        <mxCell id="XvL3G3ShM5fAOdMurJYd-126" value="&lt;font color=&quot;#ffffff&quot;&gt;row 1, cell 2&lt;/font&gt;" style="shape=partialRectangle;html=1;whiteSpace=wrap;connectable=0;fillColor=none;top=0;left=0;bottom=0;right=0;overflow=hidden;" vertex="1" parent="XvL3G3ShM5fAOdMurJYd-124">
          <mxGeometry x="90" width="90" height="32" as="geometry">
            <mxRectangle width="90" height="32" as="alternateBounds" />
          </mxGeometry>
        </mxCell>
        <mxCell id="XvL3G3ShM5fAOdMurJYd-127" value="" style="shape=tableRow;horizontal=0;startSize=0;swimlaneHead=0;swimlaneBody=0;top=0;left=0;bottom=0;right=0;collapsible=0;dropTarget=0;fillColor=none;points=[[0,0.5],[1,0.5]];portConstraint=eastwest;" vertex="1" parent="XvL3G3ShM5fAOdMurJYd-120">
          <mxGeometry y="66" width="180" height="34" as="geometry" />
        </mxCell>
        <mxCell id="XvL3G3ShM5fAOdMurJYd-128" value="&lt;font color=&quot;#ffffff&quot;&gt;row 2, cell 1&lt;/font&gt;" style="shape=partialRectangle;html=1;whiteSpace=wrap;connectable=0;fillColor=none;top=0;left=0;bottom=0;right=0;overflow=hidden;" vertex="1" parent="XvL3G3ShM5fAOdMurJYd-127">
          <mxGeometry width="90" height="34" as="geometry">
            <mxRectangle width="90" height="34" as="alternateBounds" />
          </mxGeometry>
        </mxCell>
        <mxCell id="XvL3G3ShM5fAOdMurJYd-129" value="&lt;font color=&quot;#ffffff&quot;&gt;row 2, cell 2&lt;/font&gt;" style="shape=partialRectangle;html=1;whiteSpace=wrap;connectable=0;fillColor=none;top=0;left=0;bottom=0;right=0;overflow=hidden;" vertex="1" parent="XvL3G3ShM5fAOdMurJYd-127">
          <mxGeometry x="90" width="90" height="34" as="geometry">
            <mxRectangle width="90" height="34" as="alternateBounds" />
          </mxGeometry>
        </mxCell>
        <mxCell id="XvL3G3ShM5fAOdMurJYd-130" value="" style="verticalLabelPosition=bottom;verticalAlign=top;html=1;shape=mxgraph.basic.rect;fillColor2=none;strokeWidth=1;size=20;indent=5;textOpacity=0;opacity=30;strokeColor=default;" vertex="1" parent="Rx7mZaeZPaBJiVccPEK--1">
          <mxGeometry x="42.5" y="227.5" width="117.5" height="60" as="geometry" />
        </mxCell>
        <mxCell id="nfmpKrUxCoD6boZ7DC9--1" value="&lt;font color=&quot;#ffffff&quot;&gt;Footer &amp;amp; Disclaimer text&lt;/font&gt;" style="text;strokeColor=none;align=center;fillColor=none;html=1;verticalAlign=middle;whiteSpace=wrap;rounded=0;" vertex="1" parent="Rx7mZaeZPaBJiVccPEK--1">
          <mxGeometry x="10" y="750" width="800" height="30" as="geometry" />
        </mxCell>
        <mxCell id="XvL3G3ShM5fAOdMurJYd-60" value="If the location of the index data inside the graphs is too hard, List both the sticker symbol and the index inside the graph header, then match them on the right with the valuation and change info" style="strokeWidth=1;shadow=0;dashed=0;align=center;html=1;shape=mxgraph.mockup.text.stickyNote2;fontColor=#666666;mainText=;fontSize=17;whiteSpace=wrap;fillColor=#ffffcc;strokeColor=#F62E00;" vertex="1" parent="1">
          <mxGeometry x="-520" y="110" width="480" height="184" as="geometry" />
        </mxCell>
        <mxCell id="XvL3G3ShM5fAOdMurJYd-61" value="The scrolling ticker data is always against a black bg, regardless whether page is in light or dark mode." style="strokeWidth=1;shadow=0;dashed=0;align=center;html=1;shape=mxgraph.mockup.text.stickyNote2;fontColor=#666666;mainText=;fontSize=17;whiteSpace=wrap;fillColor=#ffffcc;strokeColor=#F62E00;" vertex="1" parent="1">
          <mxGeometry x="910" y="80" width="340" height="200" as="geometry" />
        </mxCell>
        <mxCell id="XvL3G3ShM5fAOdMurJYd-64" value="" style="labelPosition=right;align=left;strokeWidth=3;shape=mxgraph.mockup.markup.curlyBrace;html=1;shadow=0;dashed=0;strokeColor=#999999;direction=north;flipH=1;" vertex="1" parent="1">
          <mxGeometry x="840" y="225" width="30" height="485" as="geometry" />
        </mxCell>
        <mxCell id="XvL3G3ShM5fAOdMurJYd-65" value="Default to severa preset time ranges, eg 1 week, 1 month, 6months, YTD" style="strokeWidth=1;shadow=0;dashed=0;align=center;html=1;shape=mxgraph.mockup.text.stickyNote2;fontColor=#666666;mainText=;fontSize=17;whiteSpace=wrap;fillColor=#ffffcc;strokeColor=#F62E00;" vertex="1" parent="1">
          <mxGeometry x="910" y="360" width="300" height="200" as="geometry" />
        </mxCell>
        <mxCell id="XvL3G3ShM5fAOdMurJYd-94" value="" style="labelPosition=right;align=left;strokeWidth=3;shape=mxgraph.mockup.markup.curlyBrace;html=1;shadow=0;dashed=0;strokeColor=#999999;direction=north;flipH=0;" vertex="1" parent="1">
          <mxGeometry x="-40" y="600" width="30" height="110" as="geometry" />
        </mxCell>
        <mxCell id="XvL3G3ShM5fAOdMurJYd-95" value="Tabular data to include: Open, Close, High, Low, Prev Close, 52wk Hi, 52wk Lo, perhaps Hi/Low for other time ranges to fill space" style="strokeWidth=1;shadow=0;dashed=0;align=center;html=1;shape=mxgraph.mockup.text.stickyNote2;fontColor=#666666;mainText=;fontSize=17;whiteSpace=wrap;fillColor=#ffffcc;strokeColor=#F62E00;" vertex="1" parent="1">
          <mxGeometry x="-540" y="560" width="500" height="200" as="geometry" />
        </mxCell>
        <mxCell id="XvL3G3ShM5fAOdMurJYd-66" value="" style="shape=table;html=1;whiteSpace=wrap;startSize=0;container=1;collapsible=0;childLayout=tableLayout;strokeWidth=2;fillColor=none;strokeColor=#CCCCCC;" vertex="1" parent="1">
          <mxGeometry x="242" y="600" width="180" height="100" as="geometry" />
        </mxCell>
        <mxCell id="XvL3G3ShM5fAOdMurJYd-67" value="" style="shape=tableRow;horizontal=0;startSize=0;swimlaneHead=0;swimlaneBody=0;top=0;left=0;bottom=0;right=0;collapsible=0;dropTarget=0;fillColor=none;points=[[0,0.5],[1,0.5]];portConstraint=eastwest;" vertex="1" parent="XvL3G3ShM5fAOdMurJYd-66">
          <mxGeometry width="180" height="34" as="geometry" />
        </mxCell>
        <mxCell id="XvL3G3ShM5fAOdMurJYd-68" value="&lt;span style=&quot;font-weight: normal;&quot;&gt;&lt;font color=&quot;#ffffff&quot;&gt;row 0, cell 1&lt;/font&gt;&lt;/span&gt;" style="shape=partialRectangle;html=1;whiteSpace=wrap;connectable=0;fillColor=none;top=0;left=0;bottom=0;right=0;overflow=hidden;fontStyle=1" vertex="1" parent="XvL3G3ShM5fAOdMurJYd-67">
          <mxGeometry width="90" height="34" as="geometry">
            <mxRectangle width="90" height="34" as="alternateBounds" />
          </mxGeometry>
        </mxCell>
        <mxCell id="XvL3G3ShM5fAOdMurJYd-69" value="&lt;span style=&quot;font-weight: normal;&quot;&gt;&lt;font color=&quot;#ffffff&quot;&gt;row 0, cell 2&lt;/font&gt;&lt;/span&gt;" style="shape=partialRectangle;html=1;whiteSpace=wrap;connectable=0;fillColor=none;top=0;left=0;bottom=0;right=0;overflow=hidden;fontStyle=1" vertex="1" parent="XvL3G3ShM5fAOdMurJYd-67">
          <mxGeometry x="90" width="90" height="34" as="geometry">
            <mxRectangle width="90" height="34" as="alternateBounds" />
          </mxGeometry>
        </mxCell>
        <mxCell id="XvL3G3ShM5fAOdMurJYd-70" value="" style="shape=tableRow;horizontal=0;startSize=0;swimlaneHead=0;swimlaneBody=0;top=0;left=0;bottom=0;right=0;collapsible=0;dropTarget=0;fillColor=none;points=[[0,0.5],[1,0.5]];portConstraint=eastwest;" vertex="1" parent="XvL3G3ShM5fAOdMurJYd-66">
          <mxGeometry y="34" width="180" height="32" as="geometry" />
        </mxCell>
        <mxCell id="XvL3G3ShM5fAOdMurJYd-71" value="&lt;font color=&quot;#ffffff&quot;&gt;row 1, cell 1&lt;/font&gt;" style="shape=partialRectangle;html=1;whiteSpace=wrap;connectable=0;fillColor=none;top=0;left=0;bottom=0;right=0;overflow=hidden;" vertex="1" parent="XvL3G3ShM5fAOdMurJYd-70">
          <mxGeometry width="90" height="32" as="geometry">
            <mxRectangle width="90" height="32" as="alternateBounds" />
          </mxGeometry>
        </mxCell>
        <mxCell id="XvL3G3ShM5fAOdMurJYd-72" value="&lt;font color=&quot;#ffffff&quot;&gt;row 1, cell 2&lt;/font&gt;" style="shape=partialRectangle;html=1;whiteSpace=wrap;connectable=0;fillColor=none;top=0;left=0;bottom=0;right=0;overflow=hidden;" vertex="1" parent="XvL3G3ShM5fAOdMurJYd-70">
          <mxGeometry x="90" width="90" height="32" as="geometry">
            <mxRectangle width="90" height="32" as="alternateBounds" />
          </mxGeometry>
        </mxCell>
        <mxCell id="XvL3G3ShM5fAOdMurJYd-73" value="" style="shape=tableRow;horizontal=0;startSize=0;swimlaneHead=0;swimlaneBody=0;top=0;left=0;bottom=0;right=0;collapsible=0;dropTarget=0;fillColor=none;points=[[0,0.5],[1,0.5]];portConstraint=eastwest;" vertex="1" parent="XvL3G3ShM5fAOdMurJYd-66">
          <mxGeometry y="66" width="180" height="34" as="geometry" />
        </mxCell>
        <mxCell id="XvL3G3ShM5fAOdMurJYd-74" value="&lt;font color=&quot;#ffffff&quot;&gt;row 2, cell 1&lt;/font&gt;" style="shape=partialRectangle;html=1;whiteSpace=wrap;connectable=0;fillColor=none;top=0;left=0;bottom=0;right=0;overflow=hidden;" vertex="1" parent="XvL3G3ShM5fAOdMurJYd-73">
          <mxGeometry width="90" height="34" as="geometry">
            <mxRectangle width="90" height="34" as="alternateBounds" />
          </mxGeometry>
        </mxCell>
        <mxCell id="XvL3G3ShM5fAOdMurJYd-75" value="&lt;font color=&quot;#ffffff&quot;&gt;row 2, cell 2&lt;/font&gt;" style="shape=partialRectangle;html=1;whiteSpace=wrap;connectable=0;fillColor=none;top=0;left=0;bottom=0;right=0;overflow=hidden;" vertex="1" parent="XvL3G3ShM5fAOdMurJYd-73">
          <mxGeometry x="90" width="90" height="34" as="geometry">
            <mxRectangle width="90" height="34" as="alternateBounds" />
          </mxGeometry>
        </mxCell>
        <mxCell id="XvL3G3ShM5fAOdMurJYd-110" value="" style="shape=table;html=1;whiteSpace=wrap;startSize=0;container=1;collapsible=0;childLayout=tableLayout;strokeWidth=2;fillColor=none;strokeColor=#CCCCCC;" vertex="1" parent="1">
          <mxGeometry x="436" y="600" width="180" height="100" as="geometry" />
        </mxCell>
        <mxCell id="XvL3G3ShM5fAOdMurJYd-111" value="" style="shape=tableRow;horizontal=0;startSize=0;swimlaneHead=0;swimlaneBody=0;top=0;left=0;bottom=0;right=0;collapsible=0;dropTarget=0;fillColor=none;points=[[0,0.5],[1,0.5]];portConstraint=eastwest;" vertex="1" parent="XvL3G3ShM5fAOdMurJYd-110">
          <mxGeometry width="180" height="34" as="geometry" />
        </mxCell>
        <mxCell id="XvL3G3ShM5fAOdMurJYd-112" value="&lt;span style=&quot;font-weight: normal;&quot;&gt;&lt;font color=&quot;#ffffff&quot;&gt;row 0, cell 1&lt;/font&gt;&lt;/span&gt;" style="shape=partialRectangle;html=1;whiteSpace=wrap;connectable=0;fillColor=none;top=0;left=0;bottom=0;right=0;overflow=hidden;fontStyle=1" vertex="1" parent="XvL3G3ShM5fAOdMurJYd-111">
          <mxGeometry width="90" height="34" as="geometry">
            <mxRectangle width="90" height="34" as="alternateBounds" />
          </mxGeometry>
        </mxCell>
        <mxCell id="XvL3G3ShM5fAOdMurJYd-113" value="&lt;span style=&quot;font-weight: normal;&quot;&gt;&lt;font color=&quot;#ffffff&quot;&gt;row 0, cell 2&lt;/font&gt;&lt;/span&gt;" style="shape=partialRectangle;html=1;whiteSpace=wrap;connectable=0;fillColor=none;top=0;left=0;bottom=0;right=0;overflow=hidden;fontStyle=1" vertex="1" parent="XvL3G3ShM5fAOdMurJYd-111">
          <mxGeometry x="90" width="90" height="34" as="geometry">
            <mxRectangle width="90" height="34" as="alternateBounds" />
          </mxGeometry>
        </mxCell>
        <mxCell id="XvL3G3ShM5fAOdMurJYd-114" value="" style="shape=tableRow;horizontal=0;startSize=0;swimlaneHead=0;swimlaneBody=0;top=0;left=0;bottom=0;right=0;collapsible=0;dropTarget=0;fillColor=none;points=[[0,0.5],[1,0.5]];portConstraint=eastwest;" vertex="1" parent="XvL3G3ShM5fAOdMurJYd-110">
          <mxGeometry y="34" width="180" height="32" as="geometry" />
        </mxCell>
        <mxCell id="XvL3G3ShM5fAOdMurJYd-115" value="&lt;font color=&quot;#ffffff&quot;&gt;row 1, cell 1&lt;/font&gt;" style="shape=partialRectangle;html=1;whiteSpace=wrap;connectable=0;fillColor=none;top=0;left=0;bottom=0;right=0;overflow=hidden;" vertex="1" parent="XvL3G3ShM5fAOdMurJYd-114">
          <mxGeometry width="90" height="32" as="geometry">
            <mxRectangle width="90" height="32" as="alternateBounds" />
          </mxGeometry>
        </mxCell>
        <mxCell id="XvL3G3ShM5fAOdMurJYd-116" value="&lt;font color=&quot;#ffffff&quot;&gt;row 1, cell 2&lt;/font&gt;" style="shape=partialRectangle;html=1;whiteSpace=wrap;connectable=0;fillColor=none;top=0;left=0;bottom=0;right=0;overflow=hidden;" vertex="1" parent="XvL3G3ShM5fAOdMurJYd-114">
          <mxGeometry x="90" width="90" height="32" as="geometry">
            <mxRectangle width="90" height="32" as="alternateBounds" />
          </mxGeometry>
        </mxCell>
        <mxCell id="XvL3G3ShM5fAOdMurJYd-117" value="" style="shape=tableRow;horizontal=0;startSize=0;swimlaneHead=0;swimlaneBody=0;top=0;left=0;bottom=0;right=0;collapsible=0;dropTarget=0;fillColor=none;points=[[0,0.5],[1,0.5]];portConstraint=eastwest;" vertex="1" parent="XvL3G3ShM5fAOdMurJYd-110">
          <mxGeometry y="66" width="180" height="34" as="geometry" />
        </mxCell>
        <mxCell id="XvL3G3ShM5fAOdMurJYd-118" value="&lt;font color=&quot;#ffffff&quot;&gt;row 2, cell 1&lt;/font&gt;" style="shape=partialRectangle;html=1;whiteSpace=wrap;connectable=0;fillColor=none;top=0;left=0;bottom=0;right=0;overflow=hidden;" vertex="1" parent="XvL3G3ShM5fAOdMurJYd-117">
          <mxGeometry width="90" height="34" as="geometry">
            <mxRectangle width="90" height="34" as="alternateBounds" />
          </mxGeometry>
        </mxCell>
        <mxCell id="XvL3G3ShM5fAOdMurJYd-119" value="&lt;font color=&quot;#ffffff&quot;&gt;row 2, cell 2&lt;/font&gt;" style="shape=partialRectangle;html=1;whiteSpace=wrap;connectable=0;fillColor=none;top=0;left=0;bottom=0;right=0;overflow=hidden;" vertex="1" parent="XvL3G3ShM5fAOdMurJYd-117">
          <mxGeometry x="90" width="90" height="34" as="geometry">
            <mxRectangle width="90" height="34" as="alternateBounds" />
          </mxGeometry>
        </mxCell>
      </root>
    </mxGraphModel>
  </diagram>
</mxfile>
